<svg width="29" height="29" viewBox="0 0 29 29" fill="none" xmlns="http://www.w3.org/2000/svg">
<path d="M0 0H29V29H0V0Z" fill="#F3F3F3"/>
<path d="M5.31667 13.775V12.0833H3.625V10.3917H1.93333V5.31667H3.625V3.625H5.31667V1.93333H13.775V3.625H7.00833V5.31667H5.31667V10.3917H7.00833V12.0833H10.3917V8.7H8.7V7.00833H13.775V13.775H5.31667Z" fill="black"/>
<path d="M15.4667 13.775V1.93333H25.6167V3.625H27.3083V8.7H23.925V10.3917H25.6167V12.0833H27.3083V13.775H22.2333V12.0833H20.5417V10.3917H18.85V13.775H15.4667ZM18.85 8.7H22.2333V7.00833H23.925V3.625H18.85V8.7Z" fill="black"/>
<path d="M1.93333 27.3083V15.4667H5.31667V17.1583H7.00833V18.85H8.7V17.1583H10.3917V15.4667H13.775V27.3083H10.3917V20.5417H8.7V23.925H7.00833V20.5417H5.31667V27.3083H1.93333Z" fill="black"/>
<path d="M17.1583 27.3083V25.6167H15.4667V23.925H18.85V25.6167H23.925V22.2333H17.1583V20.5417H15.4667V17.1583H17.1583V15.4667H25.6167V17.1583H27.3083V18.85H23.925V17.1583H18.85V20.5417H25.6167V22.2333H27.3083V25.6167H25.6167V27.3083H17.1583Z" fill="black"/>
</svg>
